<svg xmlns="http://www.w3.org/2000/svg" width="35" height="35" viewBox="0 0 35 35"><title>icon-tx_wht</title><path d="M30.75,0H4.25A4.25,4.25,0,0,0,0,4.25v26.5A4.25,4.25,0,0,0,4.25,35h26.5A4.25,4.25,0,0,0,35,30.75V4.25A4.25,4.25,0,0,0,30.75,0Zm-3.4,13.35A13.58,13.58,0,0,1,6.46,25.41a9.61,9.61,0,0,0,7.07-2,4.78,4.78,0,0,1-4.46-3.32A4.78,4.78,0,0,0,11.22,20a4.78,4.78,0,0,1-3.83-4.74,4.75,4.75,0,0,0,2.16.6A4.78,4.78,0,0,1,8.08,9.51a13.56,13.56,0,0,0,9.84,5,4.78,4.78,0,0,1,8.14-4.36,9.56,9.56,0,0,0,3-1.16A4.79,4.79,0,0,1,27,11.63a9.54,9.54,0,0,0,2.74-.75A9.72,9.72,0,0,1,27.35,13.35Zm0,0A13.58,13.58,0,0,1,6.46,25.41a9.61,9.61,0,0,0,7.07-2,4.78,4.78,0,0,1-4.46-3.32A4.78,4.78,0,0,0,11.22,20a4.78,4.78,0,0,1-3.83-4.74,4.75,4.75,0,0,0,2.16.6A4.78,4.78,0,0,1,8.08,9.51a13.56,13.56,0,0,0,9.84,5,4.78,4.78,0,0,1,8.14-4.36,9.56,9.56,0,0,0,3-1.16A4.79,4.79,0,0,1,27,11.63a9.54,9.54,0,0,0,2.74-.75A9.72,9.72,0,0,1,27.35,13.35Zm0,0A13.58,13.58,0,0,1,6.46,25.41a9.61,9.61,0,0,0,7.07-2,4.78,4.78,0,0,1-4.46-3.32A4.78,4.78,0,0,0,11.22,20a4.78,4.78,0,0,1-3.83-4.74,4.75,4.75,0,0,0,2.16.6A4.78,4.78,0,0,1,8.08,9.51a13.56,13.56,0,0,0,9.84,5,4.78,4.78,0,0,1,8.14-4.36,9.56,9.56,0,0,0,3-1.16A4.79,4.79,0,0,1,27,11.63a9.54,9.54,0,0,0,2.74-.75A9.72,9.72,0,0,1,27.35,13.35Z" fill="#fff"/><path d="M27.35,13.35A13.58,13.58,0,0,1,6.46,25.41a9.61,9.61,0,0,0,7.07-2,4.78,4.78,0,0,1-4.46-3.32A4.78,4.78,0,0,0,11.22,20a4.78,4.78,0,0,1-3.83-4.74,4.75,4.75,0,0,0,2.16.6A4.78,4.78,0,0,1,8.08,9.51a13.56,13.56,0,0,0,9.84,5,4.78,4.78,0,0,1,8.14-4.36,9.56,9.56,0,0,0,3-1.16A4.79,4.79,0,0,1,27,11.63a9.54,9.54,0,0,0,2.74-.75A9.72,9.72,0,0,1,27.35,13.35Z" fill="#2cb9db"/></svg>