<svg xmlns="http://www.w3.org/2000/svg" width="30.86" height="30.86" viewBox="0 0 30.86 30.86"><title>icon-tw_blue</title><path d="M26.79,0.43H4.07A3.64,3.64,0,0,0,.43,4.07V26.79a3.64,3.64,0,0,0,3.64,3.64H26.79a3.64,3.64,0,0,0,3.64-3.64V4.07A3.64,3.64,0,0,0,26.79.43ZM23.87,11.87A11.64,11.64,0,0,1,6,22.21,8.24,8.24,0,0,0,12,20.51,4.1,4.1,0,0,1,8.2,17.67,4.1,4.1,0,0,0,10,17.6a4.1,4.1,0,0,1-3.28-4.06A4.07,4.07,0,0,0,8.62,14,4.1,4.1,0,0,1,7.35,8.58a11.62,11.62,0,0,0,8.44,4.28,4.1,4.1,0,0,1,7-3.73,8.19,8.19,0,0,0,2.6-1,4.1,4.1,0,0,1-1.8,2.26,8.18,8.18,0,0,0,2.35-.64A8.33,8.33,0,0,1,23.87,11.87Z" fill="#2cb9db" stroke="#2cb9db" stroke-miterlimit="10" stroke-width="0.86"/></svg>