<svg xmlns="http://www.w3.org/2000/svg" width="35" height="35.18" viewBox="0 0 35 35.18"><title>icon-inst_wht</title><rect width="35" height="35.18" fill="#2cb9db"/><path d="M24.78,12.57H35V28.26a6.92,6.92,0,0,1-6.92,6.92H6.92A6.92,6.92,0,0,1,0,28.26V12.57H10.18A9,9,0,1,0,24.78,12.57ZM35,6.92v4.55H23.86a9,9,0,0,0-12.76,0H0V6.92A6.91,6.91,0,0,1,2.92,1.27V8.73H4.34V0.5a6.85,6.85,0,0,1,1-.32V8.73H6.76V0h1V8.73H9.16V0H28.08A6.92,6.92,0,0,1,35,6.92ZM31.84,4a1.11,1.11,0,0,0-1.11-1.11H27A1.11,1.11,0,0,0,25.87,4V7.83A1.11,1.11,0,0,0,27,8.94h3.74a1.11,1.11,0,0,0,1.11-1.11V4h0ZM10.58,17.75a6.9,6.9,0,1,1,6.9,6.9A6.88,6.88,0,0,1,10.58,17.75Zm1.82,0a5.1,5.1,0,1,0,5.1-5.1A5.1,5.1,0,0,0,12.4,17.75Z" transform="translate(0 0)" fill="#fff"/></svg>