<svg xmlns="http://www.w3.org/2000/svg" width="30.86" height="31.01" viewBox="0 0 30.86 31.01"><title>icon-inst_white</title><path d="M21.66,11.2h8.76V24.65a5.93,5.93,0,0,1-5.93,5.93H6.36A5.93,5.93,0,0,1,.43,24.65V11.2H9.15A7.68,7.68,0,1,0,21.66,11.2Zm8.76-4.84v3.9H20.88a7.67,7.67,0,0,0-10.94,0H0.43V6.36A5.92,5.92,0,0,1,2.94,1.52V7.91H4.15V0.86A5.87,5.87,0,0,1,5,.59V7.91H6.22V0.43H7.06V7.91H8.28V0.43H24.49A5.93,5.93,0,0,1,30.43,6.36Zm-2.71-2.5a1,1,0,0,0-1-1H23.56a1,1,0,0,0-1,1V7.14a1,1,0,0,0,1,1h3.21a1,1,0,0,0,1-1V3.86h0ZM9.5,15.64a5.91,5.91,0,1,1,5.91,5.91A5.9,5.9,0,0,1,9.5,15.64Zm1.56,0a4.37,4.37,0,1,0,4.37-4.37A4.37,4.37,0,0,0,11.06,15.64Z" fill="none" stroke="#2cb9db" stroke-miterlimit="10" stroke-width="0.86"/></svg>