<svg xmlns="http://www.w3.org/2000/svg" width="33.75" height="33.75" viewBox="0 0 33.75 33.75"><title>icon_phone</title><path d="M22.5,17.44a22.48,22.48,0,0,1-2.4,2.7,19.79,19.79,0,0,1-2.7,2.4c-3.11,2.21-6.15,2.93-7.46,1.61L8.74,23c-0.3-.34.15-1.28,1-2.14s1.84-1.31,2.14-1L13,20.89l-0.07-.07c0.75,0.75,2.21.53,3.79-.37a11.25,11.25,0,0,0,2-1.65,10.76,10.76,0,0,0,1.61-1.91c1-1.61,1.2-3.11.45-3.86l0.07,0.07L19.72,12c-0.3-.3.15-1.28,1-2.14s1.84-1.31,2.14-1l1.2,1.2C25.43,11.33,24.68,14.33,22.5,17.44ZM16.88,0A16.88,16.88,0,1,0,33.75,16.88,16.9,16.9,0,0,0,16.88,0Z" fill="#fff"/></svg>