<svg xmlns="http://www.w3.org/2000/svg" width="17.5" height="17.59" viewBox="0 0 17.5 17.59"><title>icon_insta</title><path d="M12.39,6.28H17.5v7.85A3.46,3.46,0,0,1,14,17.59H3.46A3.46,3.46,0,0,1,0,14.13V6.28H5.09A4.48,4.48,0,1,0,12.39,6.28ZM17.5,3.46V5.73H11.93a4.48,4.48,0,0,0-6.38,0H0V3.46A3.46,3.46,0,0,1,1.46.64V4.36H2.17V0.25A3.43,3.43,0,0,1,2.67.09V4.36H3.38V0H3.87V4.36H4.58V0H14A3.46,3.46,0,0,1,17.5,3.46ZM15.92,2a0.56,0.56,0,0,0-.56-0.56H13.49a0.56,0.56,0,0,0-.56.56V3.91a0.56,0.56,0,0,0,.56.56h1.87a0.56,0.56,0,0,0,.56-0.56V2h0ZM5.29,8.88a3.45,3.45,0,1,1,3.45,3.45A3.44,3.44,0,0,1,5.29,8.88Zm0.91,0A2.55,2.55,0,1,0,8.75,6.33,2.55,2.55,0,0,0,6.2,8.88Z" fill="#fff"/></svg>