<svg xmlns="http://www.w3.org/2000/svg" width="17.5" height="17.5" viewBox="0 0 17.5 17.5"><title>icon_twit</title><path d="M15.38,0H2.12A2.12,2.12,0,0,0,0,2.12V15.38A2.12,2.12,0,0,0,2.12,17.5H15.38a2.12,2.12,0,0,0,2.12-2.12V2.12A2.12,2.12,0,0,0,15.38,0Zm-1.7,6.67a6.79,6.79,0,0,1-10.45,6,4.8,4.8,0,0,0,3.53-1,2.39,2.39,0,0,1-2.23-1.66,2.39,2.39,0,0,0,1.08,0A2.39,2.39,0,0,1,3.7,7.64a2.37,2.37,0,0,0,1.08.3A2.39,2.39,0,0,1,4,4.76,6.78,6.78,0,0,0,9,7.25,2.39,2.39,0,0,1,13,5.07a4.78,4.78,0,0,0,1.52-.58,2.39,2.39,0,0,1-1,1.32,4.77,4.77,0,0,0,1.37-.38A4.86,4.86,0,0,1,13.67,6.67Z" fill="#fff"/></svg>