<svg xmlns="http://www.w3.org/2000/svg" width="25" height="25" viewBox="0 0 25 25"><title>fb_wht</title><path d="M22,0H3A3,3,0,0,0,0,3V22a3,3,0,0,0,3,3H22a3,3,0,0,0,3-3V3A3,3,0,0,0,22,0ZM16.61,6.71H14.67c-0.68,0-.83.28-0.83,1V9.42h2.77l-0.27,3h-2.5v9H10.25V12.46H8.39v-3h1.87V7c0-2.25,1.2-3.43,3.87-3.43h2.48V6.71Zm0,0H14.67c-0.68,0-.83.28-0.83,1V9.42h2.77l-0.27,3h-2.5v9H10.25V12.46H8.39v-3h1.87V7c0-2.25,1.2-3.43,3.87-3.43h2.48V6.71Z" fill="#fff"/><path d="M16.61,6.71H14.67c-0.68,0-.83.28-0.83,1V9.42h2.77l-0.27,3h-2.5v9H10.25V12.46H8.39v-3h1.87V7c0-2.25,1.2-3.43,3.87-3.43h2.48V6.71Z" fill="#2cb9db"/></svg>