<svg xmlns="http://www.w3.org/2000/svg" width="30.44" height="30.44" viewBox="0 0 30.44 30.44"><title>icon-phone_white</title><path d="M20.22,15.72a20,20,0,0,1-2.13,2.4,17.59,17.59,0,0,1-2.4,2.13c-2.77,2-5.47,2.6-6.63,1.43L8,20.62c-0.27-.3.13-1.13,0.9-1.9s1.63-1.17,1.9-.9l1,1-0.07-.07c0.67,0.67,2,.47,3.37-0.33a10,10,0,0,0,1.77-1.47,9.57,9.57,0,0,0,1.43-1.7c0.87-1.43,1.07-2.77.4-3.43l0.07,0.07-1-1c-0.27-.27.13-1.13,0.9-1.9s1.63-1.17,1.9-.9l1.07,1.07C22.82,10.29,22.16,13,20.22,15.72Zm-5-15.5a15,15,0,1,0,15,15A15,15,0,0,0,15.22.22Z" fill="none" stroke="#2cb9db" stroke-miterlimit="10" stroke-width="0.44"/></svg>