<svg xmlns="http://www.w3.org/2000/svg" width="27.66" height="37.5" viewBox="0 0 27.66 37.5"><title>Vector Smart Object1</title><path d="M20.45,13.55a6.74,6.74,0,0,1-9,5.16,9.42,9.42,0,0,1-1.2-.59,6.72,6.72,0,0,1-1-10.61,6.68,6.68,0,0,1,3.89-1.78,10.12,10.12,0,0,1,1.56,0,6.75,6.75,0,0,1,5.66,5,6,6,0,0,1,.19,1.64A5.42,5.42,0,0,1,20.45,13.55Zm6.82-3A13.87,13.87,0,0,0,17.88.6,14.14,14.14,0,0,0,13,0,13.85,13.85,0,0,0,1.56,7.45,13.54,13.54,0,0,0,.11,15.38c0.52,3.71,2.92,8.56,7,14.25,1.07,1.48,2.41,3.2,3.67,4.7,0.91,1.09,2.18,2.55,2.56,2.93a0.59,0.59,0,0,0,.29.21,0.54,0.54,0,0,0,.49-0.07c0.22-.16,1.84-2,3-3.47,5.5-6.68,9.09-12.8,10.14-17.29a11.36,11.36,0,0,0,.35-2.9A12.84,12.84,0,0,0,27.27,10.53Z" fill="#2cb9db"/></svg>